:FULLY-SPECIFIED
:FORCE-ALL-JOINTS-BE-3DOF
:DEGREES
2752
root -5.55334 13.9703 -28.3997 1242 -65.2055 -161.127
lfemur -59.4496 42.9686 -6.26809
ltibia 67.9341 0 0
lfoot -2.45956 -1.33485 0
ltoes -31.3574 0 0
rfemur -30.8889 -18.5365 21.6953
rtibia 81.878 0 0
rfoot -35.1124 -24.8146 0
rtoes -14.4828 0 0
lowerback 15.7328 5.82171 0.544691
upperback -4.01886 8.12681 1.49594
thorax -13.4659 3.80459 -0.842598
lowerneck -2.41405 9.61954 2.06565
upperneck 7.53943 12.581 1.97292
head 2.8184 6.3506 0.68561
lclavicle 2.16951e-14 -5.89566e-15 0
lhumerus 3.50429 10.6895 83.9507
lradius 94.836 0 0
lwrist -19.0804 0 0
lhand -39.8019 387.673 0
lfingers 7.12502 0 0
lthumb -12.7768 -662.738 0
rclavicle 2.16951e-14 -5.89566e-15 0
rhumerus -57.8169 50.9602 -110.15
rradius 114.054 0 0
rwrist -84.7329 0 0
rhand 4.63382 -386.966 0
rfingers 7.12502 0 0
rthumb 30.0206 305.451 0
2753
root -5.56213 13.9602 -28.4066 1242.02 -65.2166 -161.147
lfemur -59.5154 43.0227 -6.25983
ltibia 68.0747 0 0
lfoot -2.50945 -1.40083 0
ltoes -31.3633 0 0
rfemur -30.8807 -18.5529 21.6786
rtibia 81.9832 0 0
rfoot -35.2161 -24.8477 0
rtoes -14.4775 0 0
lowerback 15.7101 5.82097 0.533355
upperback -4.02917 8.12375 1.49761
thorax -13.4661 3.80438 -0.832009
lowerneck -2.41535 9.61922 2.06815
upperneck 7.56567 12.5799 1.97273
head 2.82781 6.35007 0.686289
lclavicle 2.14318e-14 -5.7793e-15 0
lhumerus 3.49836 10.7157 83.9502
lradius 94.8253 0 0
lwrist -19.0866 0 0
lhand -39.7987 387.685 0
lfingers 7.12502 0 0
lthumb -12.7737 -662.725 0
rclavicle 2.14318e-14 -5.7793e-15 0
rhumerus -57.8344 50.9369 -110.169
rradius 114.05 0 0
rwrist -84.7268 0 0
rhand 4.66789 -386.949 0
rfingers 7.12502 0 0
rthumb 30.0531 305.474 0
2754
root -5.57092 13.9501 -28.4135 1242.04 -65.2278 -161.167
lfemur -59.5812 43.0767 -6.25156
ltibia 68.2153 0 0
lfoot -2.55934 -1.46681 0
ltoes -31.3692 0 0
rfemur -30.8724 -18.5694 21.6619
rtibia 82.0883 0 0
rfoot -35.3197 -24.8807 0
rtoes -14.4721 0 0
lowerback 15.6874 5.82022 0.522019
upperback -4.03948 8.12069 1.49927
thorax -13.4664 3.80417 -0.821421
lowerneck -2.41665 9.6189 2.07064
upperneck 7.59191 12.5788 1.97254
head 2.83723 6.34955 0.686968
lclavicle 2.11684e-14 -5.66294e-15 0
lhumerus 3.49244 10.742 83.9497
lradius 94.8145 0 0
lwrist -19.0928 0 0
lhand -39.7955 387.697 0
lfingers 7.12502 0 0
lthumb -12.7706 -662.713 0
rclavicle 2.11684e-14 -5.66294e-15 0
rhumerus -57.8519 50.9137 -110.187
rradius 114.046 0 0
rwrist -84.7208 0 0
rhand 4.70197 -386.933 0
rfingers 7.12502 0 0
rthumb 30.0856 305.496 0
2755
root -5.57971 13.9399 -28.4205 1242.06 -65.239 -161.187
lfemur -59.6469 43.1308 -6.2433
ltibia 68.3559 0 0
lfoot -2.60924 -1.53279 0
ltoes -31.3751 0 0
rfemur -30.8641 -18.5859 21.6451
rtibia 82.1935 0 0
rfoot -35.4234 -24.9138 0
rtoes -14.4668 0 0
lowerback 15.6647 5.81947 0.510684
upperback -4.04978 8.11763 1.50094
thorax -13.4667 3.80395 -0.810833
lowerneck -2.41794 9.61858 2.07314
upperneck 7.61814 12.5776 1.97235
head 2.84665 6.34902 0.687647
lclavicle 2.09051e-14 -5.54658e-15 0
lhumerus 3.48651 10.7682 83.9493
lradius 94.8038 0 0
lwrist -19.099 0 0
lhand -39.7923 387.709 0
lfingers 7.12502 0 0
lthumb -12.7675 -662.701 0
rclavicle 2.09051e-14 -5.54658e-15 0
rhumerus -57.8695 50.8904 -110.205
rradius 114.042 0 0
rwrist -84.7147 0 0
rhand 4.73604 -386.917 0
rfingers 7.12502 0 0
rthumb 30.1181 305.519 0
2756
root -5.58849 13.9298 -28.4274 1242.08 -65.2501 -161.207
lfemur -59.7127 43.1848 -6.23504
ltibia 68.4965 0 0
lfoot -2.65913 -1.59878 0
ltoes -31.381 0 0
rfemur -30.8559 -18.6023 21.6284
rtibia 82.2986 0 0
rfoot -35.527 -24.9468 0
rtoes -14.4615 0 0
lowerback 15.642 5.81872 0.499348
upperback -4.06009 8.11457 1.5026
thorax -13.4669 3.80374 -0.800244
lowerneck -2.41924 9.61827 2.07564
upperneck 7.64438 12.5765 1.97216
head 2.85606 6.3485 0.688326
lclavicle 2.06418e-14 -5.43022e-15 0
lhumerus 3.48058 10.7944 83.9488
lradius 94.793 0 0
lwrist -19.1052 0 0
lhand -39.7891 387.721 0
lfingers 7.12502 0 0
lthumb -12.7644 -662.688 0
rclavicle 2.06418e-14 -5.43022e-15 0
rhumerus -57.887 50.8671 -110.223
rradius 114.038 0 0
rwrist -84.7087 0 0
rhand 4.77012 -386.9 0
rfingers 7.12502 0 0
rthumb 30.1506 305.541 0
2757
root -5.59728 13.9196 -28.4344 1242.1 -65.2613 -161.227
lfemur -59.7784 43.2389 -6.22678
ltibia 68.6371 0 0
lfoot -2.70903 -1.66476 0
ltoes -31.3869 0 0
rfemur -30.8476 -18.6188 21.6116
rtibia 82.4038 0 0
rfoot -35.6306 -24.9799 0
rtoes -14.4561 0 0
lowerback 15.6193 5.81797 0.488013
upperback -4.0704 8.11151 1.50427
thorax -13.4672 3.80353 -0.789656
lowerneck -2.42054 9.61795 2.07814
upperneck 7.67061 12.5753 1.97197
head 2.86548 6.34798 0.689005
lclavicle 2.03784e-14 -5.31385e-15 0
lhumerus 3.47465 10.8207 83.9483
lradius 94.7823 0 0
lwrist -19.1113 0 0
lhand -39.7859 387.734 0
lfingers 7.12502 0 0
lthumb -12.7613 -662.676 0
rclavicle 2.03784e-14 -5.31385e-15 0
rhumerus -57.9045 50.8438 -110.241
rradius 114.034 0 0
rwrist -84.7026 0 0
rhand 4.80419 -386.884 0
rfingers 7.12502 0 0
rthumb 30.1831 305.563 0
2758
root -5.60607 13.9095 -28.4413 1242.12 -65.2725 -161.247
lfemur -59.8442 43.2929 -6.21851
ltibia 68.7777 0 0
lfoot -2.75892 -1.73074 0
ltoes -31.3928 0 0
rfemur -30.8393 -18.6353 21.5949
rtibia 82.509 0 0
rfoot -35.7343 -25.013 0
rtoes -14.4508 0 0
lowerback 15.5966 5.81722 0.476677
upperback -4.08071 8.10845 1.50594
thorax -13.4675 3.80332 -0.779068
lowerneck -2.42184 9.61763 2.08063
upperneck 7.69685 12.5742 1.97178
head 2.8749 6.34745 0.689684
lclavicle 2.01151e-14 -5.19749e-15 0
lhumerus 3.46873 10.8469 83.9478
lradius 94.7716 0 0
lwrist -19.1175 0 0
lhand -39.7827 387.746 0
lfingers 7.12502 0 0
lthumb -12.7582 -662.664 0
rclavicle 2.01151e-14 -5.19749e-15 0
rhumerus -57.922 50.8205 -110.259
rradius 114.03 0 0
rwrist -84.6966 0 0
rhand 4.83827 -386.868 0
rfingers 7.12502 0 0
rthumb 30.2156 305.586 0
2759
root -5.61486 13.8994 -28.4482 1242.14 -65.2837 -161.268
lfemur -59.91 43.347 -6.21025
ltibia 68.9184 0 0
lfoot -2.80881 -1.79672 0
ltoes -31.3987 0 0
rfemur -30.831 -18.6517 21.5782
rtibia 82.6141 0 0
rfoot -35.8379 -25.046 0
rtoes -14.4455 0 0
lowerback 15.5739 5.81647 0.465341
upperback -4.09102 8.10539 1.5076
thorax -13.4678 3.80311 -0.768479
lowerneck -2.42314 9.61731 2.08313
upperneck 7.72308 12.573 1.97158
head 2.88431 6.34693 0.690364
lclavicle 1.98518e-14 -5.08113e-15 0
lhumerus 3.4628 10.8731 83.9473
lradius 94.7608 0 0
lwrist -19.1237 0 0
lhand -39.7794 387.758 0
lfingers 7.12502 0 0
lthumb -12.7551 -662.651 0
rclavicle 1.98518e-14 -5.08113e-15 0
rhumerus -57.9395 50.7972 -110.277
rradius 114.027 0 0
rwrist -84.6905 0 0
rhand 4.87234 -386.852 0
rfingers 7.12502 0 0
rthumb 30.248 305.608 0
2760
root -5.62365 13.8892 -28.4552 1242.16 -65.2948 -161.288
lfemur -59.9757 43.401 -6.20199
ltibia 69.059 0 0
lfoot -2.85871 -1.8627 0
ltoes -31.4046 0 0
rfemur -30.8228 -18.6682 21.5614
rtibia 82.7193 0 0
rfoot -35.9415 -25.0791 0
rtoes -14.4401 0 0
lowerback 15.5512 5.81572 0.454006
upperback -4.10132 8.10233 1.50927
thorax -13.468 3.8029 -0.757891
lowerneck -2.42444 9.61699 2.08563
upperneck 7.74932 12.5719 1.97139
head 2.89373 6.34641 0.691043
lclavicle 1.95884e-14 -4.96477e-15 0
lhumerus 3.45687 10.8994 83.9469
lradius 94.7501 0 0
lwrist -19.1299 0 0
lhand -39.7762 387.77 0
lfingers 7.12502 0 0
lthumb -12.752 -662.639 0
rclavicle 1.95884e-14 -4.96477e-15 0
rhumerus -57.9571 50.7739 -110.295
rradius 114.023 0 0
rwrist -84.6845 0 0
rhand 4.90642 -386.835 0
rfingers 7.12502 0 0
rthumb 30.2805 305.63 0
2761
root -5.63243 13.8791 -28.4621 1242.18 -65.306 -161.308
lfemur -60.0415 43.4551 -6.19373
ltibia 69.1996 0 0
lfoot -2.9086 -1.92869 0
ltoes -31.4105 0 0
rfemur -30.8145 -18.6847 21.5447
rtibia 82.8244 0 0
rfoot -36.0452 -25.1121 0
rtoes -14.4348 0 0
lowerback 15.5285 5.81498 0.44267
upperback -4.11163 8.09927 1.51093
thorax -13.4683 3.80269 -0.747303
lowerneck -2.42574 9.61668 2.08813
upperneck 7.77556 12.5708 1.9712
head 2.90315 6.34588 0.691722
lclavicle 1.93251e-14 -4.84841e-15 0
lhumerus 3.45094 10.9256 83.9464
lradius 94.7393 0 0
lwrist -19.1361 0 0
lhand -39.773 387.782 0
lfingers 7.12502 0 0
lthumb -12.7489 -662.627 0
rclavicle 1.93251e-14 -4.84841e-15 0
rhumerus -57.9746 50.7506 -110.314
rradius 114.019 0 0
rwrist -84.6784 0 0
rhand 4.94049 -386.819 0
rfingers 7.12502 0 0
rthumb 30.313 305.653 0
